<!-- Source: OpenAI Codex cursor asset supplied for the Superdocs Quickstart illustration. -->
<svg width="30" height="31" viewBox="0 0 30 31" fill="none" xmlns="http://www.w3.org/2000/svg">
  <path d="M6.01573 8.19063C5.51895 6.79964 6.86203 5.45655 8.25302 5.95333L24.1835 11.6428C25.7895 12.2164 25.7152 14.5126 24.0754 14.9811L17.9856 16.721C17.4041 16.8871 16.9495 17.3417 16.7834 17.9233L15.0435 24.013C14.575 25.6528 12.2788 25.7271 11.7052 24.1211L6.01573 8.19063Z" fill="black"/>
  <path d="M5.00949 8.32242C4.42556 6.21229 6.47186 4.2558 8.58921 5.012L24.5198 10.7006L24.7491 10.7932C26.9583 11.7911 26.8536 15.0126 24.5841 15.8651L24.3507 15.9425L18.2601 17.6826C18.0421 17.745 17.8659 17.902 17.7775 18.1073L17.745 18.1977L16.0049 24.2883C15.2689 26.8624 11.6635 26.9789 10.763 24.4574L5.0744 8.52682L5.00949 8.32242Z" stroke="white" stroke-width="2"/>
</svg>
