<svg width="1180" height="260" viewBox="0 0 1180 260" fill="none" xmlns="http://www.w3.org/2000/svg">
  <defs>
    <marker id="arrow" markerWidth="6" markerHeight="6" refX="5" refY="3" orient="auto">
      <path d="M0,0 L0,6 L6,3 z" fill="#C4C4C4"/>
    </marker>
  </defs>

  <rect width="1180" height="260" rx="6" fill="#1A1A1A"/>

  
  <rect x="140" y="10" width="1030" height="36" rx="6" fill="#2E5A3C" stroke="#4A7C59" stroke-width="1"/>
  <text x="655" y="33" text-anchor="middle" font-family="system-ui, -apple-system, sans-serif" font-size="13" font-weight="600" fill="#9ECBA8">Execute</text>

  
  <rect x="140" y="214" width="1030" height="36" rx="6" fill="#553636" stroke="#C06666" stroke-width="1"/>
  <text x="655" y="237" text-anchor="middle" font-family="system-ui, -apple-system, sans-serif" font-size="13" font-weight="600" fill="#D89090">Blocked</text>

  
  <rect x="10" y="110" width="100" height="40" rx="6" fill="#2C4665" stroke="#7A8BA8" stroke-width="1.5"/>
  <text x="60" y="135" text-anchor="middle" font-family="system-ui, -apple-system, sans-serif" font-size="12" font-weight="600" fill="#F5F5F5">Tool request</text>

  
  <line x1="110" y1="130" x2="132" y2="130" stroke="#C4C4C4" stroke-width="1.5" marker-end="url(#arrow)"/>

  
  <rect x="140" y="98" width="150" height="64" rx="6" fill="#2C2C2C" stroke="#525252" stroke-width="1"/>
  <circle cx="158" cy="130" r="10" fill="#383838"/>
  <text x="158" y="134" text-anchor="middle" font-family="system-ui, -apple-system, sans-serif" font-size="11" font-weight="600" fill="#F5F5F5">1</text>
  <text x="176" y="122" font-family="system-ui, -apple-system, sans-serif" font-size="12" font-weight="600" fill="#F5F5F5">Hooks</text>
  <text x="176" y="138" font-family="system-ui, -apple-system, sans-serif" font-size="11" fill="#C4C4C4">PreToolUse can</text>
  <text x="176" y="152" font-family="system-ui, -apple-system, sans-serif" font-size="11" fill="#C4C4C4">deny or pass on</text>

  
  <line x1="215" y1="162" x2="215" y2="208" stroke="#C06666" stroke-width="1.5" marker-end="url(#arrow)"/>
  <text x="225" y="190" font-family="system-ui, -apple-system, sans-serif" font-size="12" fill="#F5F5F5">deny</text>

  
  <line x1="290" y1="130" x2="312" y2="130" stroke="#C4C4C4" stroke-width="1.5" marker-end="url(#arrow)"/>

  
  <rect x="316" y="98" width="150" height="64" rx="6" fill="#2C2C2C" stroke="#525252" stroke-width="1"/>
  <circle cx="334" cy="130" r="10" fill="#383838"/>
  <text x="334" y="134" text-anchor="middle" font-family="system-ui, -apple-system, sans-serif" font-size="11" font-weight="600" fill="#F5F5F5">2</text>
  <text x="352" y="122" font-family="system-ui, -apple-system, sans-serif" font-size="12" font-weight="600" fill="#F5F5F5">Deny rules</text>
  <text x="352" y="138" font-family="system-ui, -apple-system, sans-serif" font-size="11" fill="#C4C4C4">disallowed_tools</text>
  <text x="352" y="152" font-family="system-ui, -apple-system, sans-serif" font-size="11" fill="#C4C4C4">settings.json deny</text>

  
  <line x1="391" y1="162" x2="391" y2="208" stroke="#C06666" stroke-width="1.5" marker-end="url(#arrow)"/>
  <text x="401" y="190" font-family="system-ui, -apple-system, sans-serif" font-size="12" fill="#F5F5F5">deny</text>

  
  <line x1="466" y1="130" x2="488" y2="130" stroke="#C4C4C4" stroke-width="1.5" marker-end="url(#arrow)"/>

  
  <rect x="492" y="98" width="150" height="64" rx="6" fill="#2C2C2C" stroke="#525252" stroke-width="1"/>
  <circle cx="510" cy="130" r="10" fill="#383838"/>
  <text x="510" y="134" text-anchor="middle" font-family="system-ui, -apple-system, sans-serif" font-size="11" font-weight="600" fill="#F5F5F5">3</text>
  <text x="528" y="122" font-family="system-ui, -apple-system, sans-serif" font-size="12" font-weight="600" fill="#F5F5F5">Ask rules</text>
  <text x="528" y="138" font-family="system-ui, -apple-system, sans-serif" font-size="11" fill="#C4C4C4">settings.json ask</text>
  <text x="528" y="152" font-family="system-ui, -apple-system, sans-serif" font-size="11" fill="#C4C4C4">match asks user</text>

  
  <path d="M567,162 L567,186 L1058,186 L1058,168" stroke="#7A8BA8" stroke-width="1.5" fill="none" marker-end="url(#arrow)"/>
  <text x="577" y="182" font-family="system-ui, -apple-system, sans-serif" font-size="12" fill="#F5F5F5">ask</text>

  
  <line x1="642" y1="130" x2="664" y2="130" stroke="#C4C4C4" stroke-width="1.5" marker-end="url(#arrow)"/>

  
  <rect x="668" y="98" width="150" height="64" rx="6" fill="#2C2C2C" stroke="#525252" stroke-width="1"/>
  <circle cx="686" cy="130" r="10" fill="#383838"/>
  <text x="686" y="134" text-anchor="middle" font-family="system-ui, -apple-system, sans-serif" font-size="11" font-weight="600" fill="#F5F5F5">4</text>
  <text x="704" y="122" font-family="system-ui, -apple-system, sans-serif" font-size="12" font-weight="600" fill="#F5F5F5">Permission mode</text>
  <text x="704" y="138" font-family="system-ui, -apple-system, sans-serif" font-size="11" fill="#C4C4C4">bypassPermissions</text>
  <text x="704" y="152" font-family="system-ui, -apple-system, sans-serif" font-size="11" fill="#C4C4C4">auto-allows all</text>

  
  <line x1="743" y1="98" x2="743" y2="52" stroke="#4A7C59" stroke-width="1.5" marker-end="url(#arrow)"/>
  <text x="753" y="78" font-family="system-ui, -apple-system, sans-serif" font-size="12" fill="#F5F5F5">bypass</text>

  
  <line x1="818" y1="130" x2="840" y2="130" stroke="#C4C4C4" stroke-width="1.5" marker-end="url(#arrow)"/>

  
  <rect x="844" y="98" width="150" height="64" rx="6" fill="#2C2C2C" stroke="#525252" stroke-width="1"/>
  <circle cx="862" cy="130" r="10" fill="#383838"/>
  <text x="862" y="134" text-anchor="middle" font-family="system-ui, -apple-system, sans-serif" font-size="11" font-weight="600" fill="#F5F5F5">5</text>
  <text x="880" y="122" font-family="system-ui, -apple-system, sans-serif" font-size="12" font-weight="600" fill="#F5F5F5">Allow rules</text>
  <text x="880" y="138" font-family="system-ui, -apple-system, sans-serif" font-size="11" fill="#C4C4C4">allowed_tools</text>
  <text x="880" y="152" font-family="system-ui, -apple-system, sans-serif" font-size="11" fill="#C4C4C4">settings.json allow</text>

  
  <line x1="919" y1="98" x2="919" y2="52" stroke="#4A7C59" stroke-width="1.5" marker-end="url(#arrow)"/>
  <text x="929" y="78" font-family="system-ui, -apple-system, sans-serif" font-size="12" fill="#F5F5F5">allow</text>

  
  <line x1="994" y1="130" x2="1016" y2="130" stroke="#C4C4C4" stroke-width="1.5" marker-end="url(#arrow)"/>

  
  <rect x="1020" y="98" width="150" height="64" rx="6" fill="#2C2C2C" stroke="#525252" stroke-width="1"/>
  <circle cx="1038" cy="130" r="10" fill="#383838"/>
  <text x="1038" y="134" text-anchor="middle" font-family="system-ui, -apple-system, sans-serif" font-size="11" font-weight="600" fill="#F5F5F5">6</text>
  <text x="1056" y="122" font-family="system-ui, -apple-system, sans-serif" font-size="12" font-weight="600" fill="#F5F5F5">canUseTool</text>
  <text x="1056" y="138" font-family="system-ui, -apple-system, sans-serif" font-size="11" fill="#C4C4C4">Your code decides</text>
  <text x="1056" y="152" font-family="system-ui, -apple-system, sans-serif" font-size="11" fill="#C4C4C4">(prompt user, etc.)</text>

  
  <line x1="1076" y1="98" x2="1076" y2="52" stroke="#4A7C59" stroke-width="1.5" marker-end="url(#arrow)"/>
  <text x="1086" y="78" font-family="system-ui, -apple-system, sans-serif" font-size="12" fill="#F5F5F5">allow</text>

  
  <line x1="1114" y1="162" x2="1114" y2="208" stroke="#C06666" stroke-width="1.5" marker-end="url(#arrow)"/>
  <text x="1124" y="190" font-family="system-ui, -apple-system, sans-serif" font-size="12" fill="#F5F5F5">deny</text>

</svg>
